<svg width="64px" height="64px" data-name="Layer 1" viewBox="0 0 600.28 600.28" xmlns="http://www.w3.org/2000/svg"><defs><style>.cls-1{fill:#fec925;}.cls-2{fill:#161616;}.cls-3{fill:#54585a;}</style></defs><rect class="cls-1" width="600.28" height="600.28" rx="23.24"/><path class="cls-2" d="M174.33,246.06v92.78H152.86v-38H110.71v38H89.24V246.06h21.47v36.58h42.15V246.06Z"/><path class="cls-2" d="M259.81,321.34v17.5H189.7V324.92l35.78-33.8c8.22-7.82,9.68-12.59,9.68-17.09,0-7.29-5-11.53-14.85-11.53-7.95,0-14.71,3-19.21,9.27L185.46,261.7c7.15-10.47,20.14-17.23,36.84-17.23,20.68,0,34.46,10.6,34.46,27.44,0,9-2.52,17.22-15.51,29.29l-21.33,20.14Z"/><path class="cls-2" d="m268.69 292.45c0-27.57 21.47-48 50.76-48s50.76 20.28 50.76 48-21.6 48-50.76 48-50.76-20.45-50.76-48zm79.78 0c0-17.63-12.46-29.69-29-29.69s-29 12.06-29 29.69 12.46 29.69 29 29.69 29-12.06 29-29.69z"/><path class="cls-3" d="m377.23 326.91c0-7.69 5.7-12.73 12.85-12.73s12.86 5 12.86 12.73a12.86 12.86 0 1 1-25.71 0z"/><path class="cls-3" d="m481.4 298.15v40.69h-19.35v-8.84c-3.84 6.49-11.27 9.94-21.74 9.94-16.7 0-26.64-9.28-26.64-21.61 0-12.59 8.88-21.34 30.62-21.34h16.43c0-8.87-5.3-14-16.43-14-7.55 0-15.37 2.51-20.54 6.62l-7.43-14.44c7.82-5.57 19.35-8.62 30.75-8.62 21.74-0.08 34.33 9.99 34.33 31.6zm-20.68 18.16v-7.31h-14.18c-9.67 0-12.72 3.57-12.72 8.35 0 5.16 4.37 8.61 11.66 8.61 6.89 0.04 12.86-3.16 15.24-9.65z"/><path class="cls-3" d="m497.56 246.06c0-6.49 5.17-11.53 12.86-11.53s12.86 4.77 12.86 11.13c0 6.89-5.17 11.93-12.86 11.93s-12.86-5.04-12.86-11.53zm2.52 21.47h20.68v71.31h-20.68z"/></svg>
