<?xml version="1.0" encoding="UTF-8" standalone="no"?>
<!DOCTYPE svg PUBLIC "-//W3C//DTD SVG 1.1//EN"
 "http://www.w3.org/Graphics/SVG/1.1/DTD/svg11.dtd">
<!-- Generated by graphviz version 8.1.0 (20230707.0739)
 -->
<!-- Title: G Pages: 1 -->
<svg width="342pt" height="368pt"
 viewBox="0.00 0.00 342.46 368.08" xmlns="http://www.w3.org/2000/svg" xmlns:xlink="http://www.w3.org/1999/xlink">
<g id="graph0" class="graph" transform="scale(1 1) rotate(0) translate(4 364.08)">
<title>G</title><style>.edge>path:hover{stroke-width:8}</style>
<polygon fill="white" stroke="none" points="-4,4 -4,-364.08 338.46,-364.08 338.46,4 -4,4"/>
<!-- unctl_lib -->
<g id="node1" class="node">
<title>unctl_lib</title><style>.edge>path:hover{stroke-width:8}</style>
<ellipse fill="#ce3b3b" stroke="black" cx="97.88" cy="-116.61" rx="29.44" ry="18"/>
<text text-anchor="middle" x="97.88" y="-112.74" font-family="Helvetica,sans-Serif" font-size="10.00" fill="#ffffff">unctl.lib</text>
</g>
<!-- unctl_scanrkube -->
<g id="node8" class="node">
<title>unctl_scanrkube</title><style>.edge>path:hover{stroke-width:8}</style>
<ellipse fill="#8f3d3d" stroke="black" cx="125.88" cy="-21.57" rx="43.13" ry="21.57"/>
<text text-anchor="middle" x="125.88" y="-23.32" font-family="Helvetica,sans-Serif" font-size="10.00" fill="#ffffff">unctl.</text>
<text text-anchor="middle" x="125.88" y="-12.07" font-family="Helvetica,sans-Serif" font-size="10.00" fill="#ffffff">scanrkube</text>
</g>
<!-- unctl_lib&#45;&gt;unctl_scanrkube -->
<g id="edge1" class="edge">
<title>unctl_lib&#45;&gt;unctl_scanrkube</title><style>.edge>path:hover{stroke-width:8}</style>
<path fill="none" stroke="black" d="M103.01,-98.54C106.8,-85.96 112.05,-68.5 116.57,-53.49"/>
<polygon fill="#ce3b3b" stroke="black" points="120.17,-54.68 119.7,-44.1 113.46,-52.66 120.17,-54.68"/>
</g>
<!-- unctl_lib_check -->
<g id="node2" class="node">
<title>unctl_lib_check</title><style>.edge>path:hover{stroke-width:8}</style>
<ellipse fill="#c24747" stroke="black" cx="29.88" cy="-219.61" rx="29.88" ry="29.52"/>
<text text-anchor="middle" x="29.88" y="-226.98" font-family="Helvetica,sans-Serif" font-size="10.00" fill="#ffffff">unctl.</text>
<text text-anchor="middle" x="29.88" y="-215.73" font-family="Helvetica,sans-Serif" font-size="10.00" fill="#ffffff">lib.</text>
<text text-anchor="middle" x="29.88" y="-204.48" font-family="Helvetica,sans-Serif" font-size="10.00" fill="#ffffff">check</text>
</g>
<!-- unctl_lib_check&#45;&gt;unctl_scanrkube -->
<g id="edge2" class="edge">
<title>unctl_lib_check&#45;&gt;unctl_scanrkube</title><style>.edge>path:hover{stroke-width:8}</style>
<path fill="none" stroke="black" d="M54.41,-202.4C60.71,-198.32 67.51,-193.99 73.88,-190.09 115.04,-164.81 154.91,-165.92 154.88,-117.61"/>
<path fill="none" stroke="black" d="M154.88,-115.61C154.86,-93.93 147.59,-70.64 140.34,-52.79"/>
<polygon fill="#c24747" stroke="black" points="143.17,-51.51 136.01,-43.7 136.74,-54.27 143.17,-51.51"/>
</g>
<!-- unctl_lib_check_check -->
<g id="node3" class="node">
<title>unctl_lib_check_check</title><style>.edge>path:hover{stroke-width:8}</style>
<ellipse fill="#c24747" stroke="black" cx="87.88" cy="-322.61" rx="32" ry="37.48"/>
<text text-anchor="middle" x="87.88" y="-335.61" font-family="Helvetica,sans-Serif" font-size="10.00" fill="#ffffff">unctl.</text>
<text text-anchor="middle" x="87.88" y="-324.36" font-family="Helvetica,sans-Serif" font-size="10.00" fill="#ffffff">lib.</text>
<text text-anchor="middle" x="87.88" y="-313.11" font-family="Helvetica,sans-Serif" font-size="10.00" fill="#ffffff">check.</text>
<text text-anchor="middle" x="87.88" y="-301.86" font-family="Helvetica,sans-Serif" font-size="10.00" fill="#ffffff">check</text>
</g>
<!-- unctl_lib_check_check&#45;&gt;unctl_scanrkube -->
<g id="edge3" class="edge">
<title>unctl_lib_check_check&#45;&gt;unctl_scanrkube</title><style>.edge>path:hover{stroke-width:8}</style>
<path fill="none" stroke="black" d="M88.03,-284.75C89.35,-257.56 93.75,-220.23 106.88,-190.09 122.3,-154.67 154.91,-156.25 154.88,-117.61"/>
</g>
<!-- unctl_lib_check_models -->
<g id="node4" class="node">
<title>unctl_lib_check_models</title><style>.edge>path:hover{stroke-width:8}</style>
<ellipse fill="#a44646" stroke="black" cx="300.88" cy="-116.61" rx="33.59" ry="37.48"/>
<text text-anchor="middle" x="300.88" y="-129.61" font-family="Helvetica,sans-Serif" font-size="10.00" fill="#ffffff">unctl.</text>
<text text-anchor="middle" x="300.88" y="-118.36" font-family="Helvetica,sans-Serif" font-size="10.00" fill="#ffffff">lib.</text>
<text text-anchor="middle" x="300.88" y="-107.11" font-family="Helvetica,sans-Serif" font-size="10.00" fill="#ffffff">check.</text>
<text text-anchor="middle" x="300.88" y="-95.86" font-family="Helvetica,sans-Serif" font-size="10.00" fill="#ffffff">models</text>
</g>
<!-- unctl_lib_llm -->
<g id="node5" class="node">
<title>unctl_lib_llm</title><style>.edge>path:hover{stroke-width:8}</style>
<ellipse fill="#c24747" stroke="black" cx="154.88" cy="-219.61" rx="38.76" ry="18"/>
<text text-anchor="middle" x="154.88" y="-215.73" font-family="Helvetica,sans-Serif" font-size="10.00" fill="#ffffff">unctl.lib.llm</text>
</g>
<!-- unctl_lib_llm&#45;&gt;unctl_scanrkube -->
<g id="edge4" class="edge">
<title>unctl_lib_llm&#45;&gt;unctl_scanrkube</title><style>.edge>path:hover{stroke-width:8}</style>
<path fill="none" stroke="black" d="M154.88,-201.45C154.89,-181.36 154.9,-147.07 154.88,-117.61"/>
</g>
<!-- unctl_lib_llm_openai -->
<g id="node6" class="node">
<title>unctl_lib_llm_openai</title><style>.edge>path:hover{stroke-width:8}</style>
<ellipse fill="#c24747" stroke="black" cx="221.88" cy="-322.61" rx="31.47" ry="37.48"/>
<text text-anchor="middle" x="221.88" y="-335.61" font-family="Helvetica,sans-Serif" font-size="10.00" fill="#ffffff">unctl.</text>
<text text-anchor="middle" x="221.88" y="-324.36" font-family="Helvetica,sans-Serif" font-size="10.00" fill="#ffffff">lib.</text>
<text text-anchor="middle" x="221.88" y="-313.11" font-family="Helvetica,sans-Serif" font-size="10.00" fill="#ffffff">llm.</text>
<text text-anchor="middle" x="221.88" y="-301.86" font-family="Helvetica,sans-Serif" font-size="10.00" fill="#ffffff">openai</text>
</g>
<!-- unctl_lib_llm_openai&#45;&gt;unctl_scanrkube -->
<g id="edge5" class="edge">
<title>unctl_lib_llm_openai&#45;&gt;unctl_scanrkube</title><style>.edge>path:hover{stroke-width:8}</style>
<path fill="none" stroke="black" d="M220.87,-284.8C219.11,-257.82 214.54,-220.7 202.88,-190.09 189.11,-153.99 155.42,-156.24 154.88,-117.61"/>
</g>
<!-- unctl_lib_logger -->
<g id="node7" class="node">
<title>unctl_lib_logger</title><style>.edge>path:hover{stroke-width:8}</style>
<ellipse fill="#c24747" stroke="black" cx="300.88" cy="-322.61" rx="29.88" ry="29.52"/>
<text text-anchor="middle" x="300.88" y="-329.98" font-family="Helvetica,sans-Serif" font-size="10.00" fill="#ffffff">unctl.</text>
<text text-anchor="middle" x="300.88" y="-318.73" font-family="Helvetica,sans-Serif" font-size="10.00" fill="#ffffff">lib.</text>
<text text-anchor="middle" x="300.88" y="-307.48" font-family="Helvetica,sans-Serif" font-size="10.00" fill="#ffffff">logger</text>
</g>
<!-- unctl_lib_logger&#45;&gt;unctl_lib_check_models -->
<g id="edge6" class="edge">
<title>unctl_lib_logger&#45;&gt;unctl_lib_check_models</title><style>.edge>path:hover{stroke-width:8}</style>
<path fill="none" stroke="black" d="M300.88,-292.81C300.88,-259.75 300.88,-205.01 300.88,-165.51"/>
<polygon fill="#c24747" stroke="black" points="304.38,-165.55 300.88,-155.55 297.38,-165.55 304.38,-165.55"/>
</g>
</g>
</svg>
