<?xml version="1.0" encoding="UTF-8"?><svg id="Layer_1" xmlns="http://www.w3.org/2000/svg" viewBox="0 0 548.04 178.58"><defs><style>.cls-1{fill:#060645;}</style></defs><path class="cls-1" d="M139.82,0H10.57C4.73,0,0,4.73,0,10.57V103.39c0,41.53,33.67,75.19,75.19,75.19s75.19-33.66,75.19-75.19V10.57C150.39,4.73,145.66,0,139.82,0h0ZM55.24,89.42c-18.82,0-34.07-15.25-34.07-34.07S36.43,21.28,55.24,21.28s34.07,15.25,34.07,34.07-15.25,34.07-34.07,34.07Z"/><g><polygon class="cls-1" points="183.75 76.79 196.79 76.79 196.79 21.62 212.93 21.62 212.93 10.07 167.39 10.07 167.39 21.62 183.75 21.62 183.75 76.79"/><path class="cls-1" d="M367.43,77.03c17.73,0,32.16-15.02,32.16-33.48s-14.43-33.48-32.16-33.48-32.16,15.02-32.16,33.48,14.43,33.48,32.16,33.48Zm0-53.95c10.57,0,19.16,9.19,19.16,20.48s-8.6,20.48-19.16,20.48-19.16-9.19-19.16-20.48,8.6-20.48,19.16-20.48Z"/><g><rect class="cls-1" x="277.62" y="108.86" width="12.57" height="47.97"/><path class="cls-1" d="M283.91,90.02c-4.2,0-7.62,3.42-7.62,7.62s3.42,7.62,7.62,7.62,7.62-3.42,7.62-7.62-3.42-7.62-7.62-7.62Z"/></g><g><rect class="cls-1" x="459.13" y="108.86" width="12.57" height="47.97"/><path class="cls-1" d="M465.41,90.02c-4.2,0-7.62,3.42-7.62,7.62s3.42,7.62,7.62,7.62,7.62-3.42,7.62-7.62-3.42-7.62-7.62-7.62Z"/></g><path class="cls-1" d="M431.85,119.85c.92-.72,2.22-1.09,3.88-1.09,2.13,0,4.07,.58,5.78,1.72,1.7,1.13,2.93,2.68,3.65,4.58l.3,.8,9.83-4.62-.25-.68c-1.46-3.9-3.94-6.97-7.38-9.13-3.42-2.14-7.4-3.23-11.84-3.23-3.4,0-6.47,.62-9.11,1.84-2.67,1.23-4.78,2.98-6.29,5.19-1.51,2.23-2.28,4.85-2.28,7.8,0,3.32,1.07,6.23,3.17,8.66,2.08,2.4,5.16,4.21,9.16,5.37l7.47,2.1c.9,.27,1.75,.6,2.51,.99,.71,.37,1.28,.81,1.68,1.31,.36,.44,.54,1.03,.54,1.73,0,1.23-.46,2.15-1.46,2.91-1.03,.79-2.48,1.18-4.31,1.18-2.4,0-4.61-.69-6.57-2.05-1.97-1.36-3.54-3.29-4.65-5.73l-.33-.73-9.58,4.59,.22,.66c1.4,4.13,4,7.45,7.76,9.86,3.73,2.4,8.15,3.61,13.16,3.61,3.57,0,6.73-.62,9.4-1.84,2.7-1.23,4.84-2.98,6.37-5.18,1.54-2.23,2.33-4.82,2.33-7.72,0-3.43-1.1-6.38-3.27-8.77-2.13-2.34-5.18-4.11-9.05-5.26l-7.3-2.18c-1.03-.33-1.94-.68-2.71-1.05-.69-.33-1.23-.76-1.6-1.27-.35-.47-.52-1.06-.52-1.72,0-1.12,.41-1.96,1.3-2.66h-.01Z"/><path class="cls-1" d="M256.12,36.76c-1.51-2.7-3.65-4.84-6.36-6.36-2.7-1.51-5.83-2.28-9.3-2.28s-6.35,.75-8.88,2.24c-1.1,.64-2.18,1.65-3.05,2.7V10.07h-12.12V76.77h12.13v-27.5c0-1.95,.38-4.13,1.13-5.52,.74-1.38,1.8-2.48,3.13-3.25,1.34-.77,2.88-1.17,4.6-1.17s3.33,.39,4.64,1.16c1.3,.77,2.34,1.87,3.09,3.25,.75,1.39,1.13,3.09,1.13,5.04v27.98h12.13v-30.62c0-3.53-.76-6.69-2.27-9.38h0Z"/><path class="cls-1" d="M214.83,129.68c0,8.16-6.64,14.81-14.8,14.81s-14.8-6.64-14.8-14.81v-39.66h-13.02v39.66c0,15.34,12.48,27.82,27.82,27.82s27.82-12.48,27.82-27.82v-39.66h-13.02v39.66h0Z"/><path class="cls-1" d="M308.5,53.89c.17-1.22,.18-1.84,.18-2.64,0-3.16-.53-6.16-1.56-8.89-1.04-2.74-2.56-5.21-4.52-7.35-1.97-2.14-4.38-3.84-7.19-5.05-2.8-1.21-6.09-1.83-9.77-1.83-4.38,0-8.4,1.08-11.95,3.22-3.55,2.13-6.38,5.07-8.43,8.73s-3.08,7.9-3.08,12.62,1.02,8.75,3.04,12.48c2.02,3.75,4.88,6.76,8.52,8.95,3.63,2.19,7.92,3.3,12.76,3.3,3.21,0,6.21-.5,8.89-1.47,2.68-.98,5.04-2.36,7-4.09,1.98-1.74,3.45-3.78,4.38-6.05l.18-.44-9.87-4.84-.24,.42c-.97,1.73-2.33,3.13-4.03,4.15-1.7,1.02-3.79,1.54-6.24,1.54s-4.63-.58-6.5-1.71c-1.86-1.13-3.28-2.76-4.22-4.83-.51-1.12-.85-2.35-1.03-3.66h33.03s.35-.51,.64-2.54v-.02Zm-28.78-13.9c1.72-1.1,3.72-1.66,5.93-1.66s4.33,.57,5.96,1.7c1.63,1.12,2.83,2.68,3.55,4.61,.27,.72,.45,1.48,.56,2.29h-20.59c.17-.73,.39-1.42,.66-2.06,.89-2.13,2.21-3.77,3.93-4.87h0Z"/><path class="cls-1" d="M501.38,53.89c.17-1.22,.18-1.84,.18-2.64,0-3.16-.53-6.16-1.56-8.89-1.04-2.74-2.56-5.21-4.52-7.35-1.97-2.14-4.38-3.84-7.19-5.05-2.8-1.21-6.09-1.83-9.77-1.83-4.38,0-8.4,1.08-11.95,3.22-3.55,2.13-6.38,5.07-8.43,8.73s-3.08,7.9-3.08,12.62,1.02,8.75,3.04,12.48c2.02,3.75,4.88,6.76,8.52,8.95,3.63,2.19,7.92,3.3,12.76,3.3,3.21,0,6.21-.5,8.89-1.47,2.68-.98,5.04-2.36,7-4.09,1.98-1.74,3.45-3.78,4.38-6.05l.18-.44-9.87-4.84-.24,.42c-.97,1.73-2.33,3.13-4.03,4.15-1.7,1.02-3.79,1.54-6.24,1.54s-4.63-.58-6.5-1.71c-1.86-1.13-3.28-2.76-4.22-4.83-.51-1.12-.85-2.35-1.03-3.66h33.03s.35-.51,.64-2.54v-.02Zm-28.78-13.9c1.72-1.1,3.72-1.66,5.93-1.66s4.33,.57,5.96,1.7c1.63,1.12,2.83,2.68,3.55,4.61,.27,.72,.45,1.48,.56,2.29h-20.59c.17-.73,.39-1.42,.66-2.06,.89-2.13,2.21-3.77,3.93-4.87h0Z"/><path class="cls-1" d="M383.41,133.96c.17-1.22,.18-1.84,.18-2.64,0-3.16-.53-6.16-1.56-8.89-1.04-2.74-2.56-5.21-4.52-7.35-1.97-2.14-4.38-3.84-7.19-5.05-2.8-1.21-6.09-1.83-9.77-1.83-4.38,0-8.4,1.08-11.95,3.22-3.55,2.13-6.38,5.07-8.43,8.73s-3.08,7.9-3.08,12.62,1.02,8.75,3.04,12.48c2.02,3.75,4.88,6.76,8.52,8.95,3.63,2.19,7.92,3.3,12.76,3.3,3.21,0,6.21-.5,8.89-1.47,2.68-.98,5.04-2.36,7-4.09,1.98-1.74,3.45-3.78,4.38-6.05l.18-.44-9.87-4.84-.24,.42c-.97,1.73-2.33,3.13-4.03,4.15-1.7,1.02-3.79,1.54-6.24,1.54s-4.63-.58-6.5-1.71c-1.86-1.13-3.28-2.76-4.22-4.83-.51-1.12-.85-2.35-1.03-3.66h33.03s.35-.51,.64-2.54v-.02Zm-28.78-13.9c1.72-1.1,3.72-1.66,5.93-1.66s4.33,.57,5.96,1.7c1.63,1.12,2.83,2.68,3.55,4.61,.27,.72,.45,1.48,.56,2.29h-20.59c.17-.73,.39-1.42,.66-2.06,.89-2.13,2.21-3.77,3.93-4.87h0Z"/><path class="cls-1" d="M498.73,146.34c-1.8,0-3.29-.28-4.42-.84-1.1-.54-1.91-1.32-2.42-2.34-.52-1.04-.79-2.34-.79-3.84v-20.57h7.6v-9.89h-7.6v-11.49h-11.79v11.49h-3.8v9.89h3.79v21.19c0,5.53,.78,9.89,3.84,12.95s7.41,4.61,12.95,4.61c.9,0,1.9-.06,2.97-.18s2.02-.24,2.84-.36l.43-.06v-10.88l-2.19,.24c-.54,.06-1.01,.09-1.41,.09h0Z"/><path class="cls-1" d="M340.29,108.86h-13.68l-9.15,28.31c-.22,.68-.38,1.38-.46,2.09l-.2,1.57-.2-1.57c-.09-.71-.25-1.41-.46-2.08l-9.15-28.31h-13.68l18.03,47.97h10.94l18.03-47.97h-.02Z"/><path class="cls-1" d="M534.36,108.86l-9.71,28.31c-.22,.68-.38,1.38-.46,2.09l-.2,1.57-.2-1.57c-.09-.71-.25-1.41-.46-2.08l-8.6-28.31h-12.39l12.43,44.34c.64,2.31,1.4,3.28,2.96,3.63l-7.82,20.61h12.97l25.16-68.58h-13.68Z"/><path class="cls-1" d="M516.16,32.18c-.72-2.23-2.35-3.39-4.89-3.39h-7.07v47.96h12.13v-27.97c0-1.95,.38-3.65,1.13-5.04,.74-1.38,1.8-2.48,3.13-3.25,1.34-.77,2.88-1.17,4.6-1.17s3.33,.39,4.64,1.16c1.3,.77,2.34,1.87,3.09,3.25,.75,1.39,1.13,3.09,1.13,5.04v27.97h12.13v-30.6c0-3.53-.76-6.69-2.27-9.38-1.51-2.7-3.65-4.84-6.36-6.36-2.7-1.51-5.83-2.28-9.3-2.28s-6.35,.75-8.88,2.24c-1.14,.67-2.18,1.54-3.04,2.49,0,0-.08-.39-.18-.68h0Z"/><path class="cls-1" d="M429.06,28.13c-4.95,0-10.31,1.31-13.88,4.73,0,0-.08-.39-.18-.68-.72-2.23-2.35-3.39-4.89-3.39h-7.07V97.37h12.13v-24.62l.03,.02c1.17,1.02,2.49,1.88,3.92,2.57,2.86,1.36,6.03,2.04,9.43,2.04,4.54,0,8.66-1.1,12.23-3.26s6.43-5.15,8.5-8.89,3.12-7.94,3.12-12.47-1.06-8.8-3.17-12.48c-4.24-7.37-11.52-12.15-20.19-12.15h.02Zm9.41,31.61c-1.05,2-2.55,3.59-4.44,4.73-1.89,1.13-4.09,1.71-6.53,1.71s-4.45-.58-6.32-1.71c-1.86-1.14-3.35-2.73-4.4-4.73-1.06-2.01-1.6-4.36-1.6-6.98s.54-4.9,1.6-6.94c1.06-2.03,2.54-3.63,4.4-4.77,1.86-1.13,3.99-1.71,6.32-1.71s4.64,.59,6.53,1.75c1.9,1.17,3.39,2.76,4.44,4.73,1.06,1.98,1.6,4.32,1.6,6.94s-.54,4.97-1.6,6.98Z"/><path class="cls-1" d="M243.66,112.26c-.72-2.23-2.35-3.39-4.89-3.39h-7.07v47.96h12.13v-27.97c0-1.95,.38-3.65,1.13-5.04,.74-1.38,1.8-2.48,3.13-3.25,1.34-.77,2.88-1.17,4.6-1.17s3.33,.39,4.64,1.16c1.3,.77,2.34,1.87,3.09,3.25,.75,1.39,1.13,3.09,1.13,5.04v27.97h12.13v-30.6c0-3.53-.76-6.69-2.27-9.38-1.51-2.7-3.65-4.84-6.36-6.36-2.7-1.51-5.83-2.28-9.3-2.28s-6.35,.75-8.88,2.24c-1.14,.67-2.18,1.54-3.04,2.49,0,0-.08-.39-.18-.68h0Z"/><path class="cls-1" d="M399.63,112.94s-.08-.39-.18-.68c-.72-2.23-2.35-3.39-4.89-3.39h-7.07v47.96h12.13v-26.31c0-4.11,2.03-6.89,3.3-8.18,1.84-1.87,4.63-2.9,7.6-2.9s4.65,.55,4.65,.55v-11.25s-1.15-.55-3.32-.55c-2.48,0-4.36,.18-6.59,.97s-4.14,2.33-5.63,3.77h0Z"/></g></svg>