<?xml version="1.0" standalone="no"?>
<!DOCTYPE svg PUBLIC "-//W3C//DTD SVG 20010904//EN"
 "http://www.w3.org/TR/2001/REC-SVG-20010904/DTD/svg10.dtd">
<svg version="1.0" xmlns="http://www.w3.org/2000/svg"
 width="512.000000pt" height="512.000000pt" viewBox="0 0 512.000000 512.000000"
 preserveAspectRatio="xMidYMid meet">
<metadata>
Created by potrace 1.14, written by Peter Selinger 2001-2017
</metadata>
<g transform="translate(0.000000,512.000000) scale(0.100000,-0.100000)"
fill="#000000" stroke="none">
<path d="M2173 4817 c-211 -106 -383 -194 -383 -197 0 -3 40 -25 90 -48 49
-24 92 -47 95 -53 4 -5 11 -7 16 -4 5 4 9 1 9 -5 0 -6 5 -8 10 -5 6 3 10 1 10
-5 0 -6 5 -8 10 -5 6 3 10 1 10 -6 0 -7 3 -9 6 -6 4 4 20 -3 35 -14 16 -11 29
-17 29 -13 0 4 8 0 18 -8 9 -8 119 -65 244 -128 l226 -113 89 48 c48 26 111
60 138 75 28 15 157 85 288 155 205 110 235 129 220 140 -10 6 -153 79 -318
161 -165 82 -302 152 -305 155 -7 8 -44 22 -52 21 -5 -1 -8 3 -8 8 0 6 -9 10
-20 10 -11 0 -20 5 -20 11 0 5 -4 7 -10 4 -5 -3 -10 -1 -10 4 0 6 -8 11 -17
10 -10 0 -190 -86 -400 -192z"/>
<path d="M955 4205 c-315 -160 -437 -226 -429 -233 7 -6 15 -8 18 -5 3 4 6 1
6 -5 0 -6 14 -13 30 -17 16 -4 30 -11 30 -16 0 -6 4 -8 9 -5 5 4 11 3 13 -2 1
-4 163 -88 359 -186 l356 -178 169 88 c93 48 174 90 179 94 6 4 73 40 150 80
77 40 178 93 225 118 47 25 97 51 113 59 15 8 27 18 27 23 0 8 -38 23 -52 21
-5 -1 -8 4 -8 10 0 5 -4 8 -9 5 -5 -4 -11 -3 -13 2 -1 4 -102 57 -223 117
-121 60 -236 119 -256 132 -20 12 -40 19 -43 16 -3 -4 -6 0 -6 7 0 7 -3 10 -7
7 -3 -4 -15 0 -25 10 -10 9 -18 12 -18 7 0 -5 -4 -4 -8 2 -6 10 -133 75 -143
73 -2 0 -202 -101 -444 -224z"/>
<path d="M3690 4402 c-19 -11 -156 -83 -305 -162 -148 -78 -303 -161 -344
-183 l-73 -40 126 -63 c70 -34 133 -67 141 -74 8 -7 15 -9 15 -5 0 5 8 1 18
-8 10 -10 22 -14 25 -10 4 3 7 1 7 -5 0 -7 3 -11 8 -10 4 1 23 -7 42 -17 19
-11 134 -69 255 -130 l220 -110 386 195 c244 122 385 199 382 207 -4 11 -61
37 -75 34 -5 0 -8 4 -8 10 0 5 -4 7 -10 4 -5 -3 -10 -1 -10 5 0 6 -4 8 -10 5
-5 -3 -10 -1 -10 5 0 6 -4 9 -9 6 -5 -4 -11 -3 -13 2 -3 8 -704 362 -717 362
-3 0 -22 -8 -41 -18z"/>
<path d="M2425 3739 c-82 -44 -220 -117 -305 -161 -85 -45 -200 -106 -255
-136 -55 -29 -108 -56 -117 -59 -10 -3 -18 -9 -18 -13 0 -5 93 -55 208 -112
114 -56 209 -106 210 -110 2 -5 12 -8 23 -8 10 0 19 -5 19 -11 0 -5 5 -7 10
-4 6 3 10 1 10 -5 0 -6 5 -8 10 -5 6 3 10 1 10 -5 0 -6 5 -8 10 -5 6 3 10 1
10 -5 0 -6 4 -9 9 -6 5 4 11 2 13 -3 1 -5 10 -11 18 -13 8 -2 17 -5 20 -8 3
-3 59 -33 126 -66 l121 -62 434 220 c239 121 438 224 444 229 5 6 3 9 -8 9 -9
0 -17 4 -17 8 0 5 -18 15 -40 22 -22 7 -40 17 -40 22 0 4 -9 8 -19 8 -11 0
-21 4 -23 8 -1 4 -88 50 -193 102 -104 52 -206 104 -226 116 -20 13 -40 20
-43 17 -3 -4 -6 -1 -6 6 0 7 -4 9 -10 6 -5 -3 -10 -1 -10 5 0 6 -4 8 -10 5 -5
-3 -10 -1 -10 5 0 6 -4 8 -10 5 -5 -3 -10 -1 -10 6 0 7 -3 9 -7 6 -3 -4 -15 0
-25 10 -10 9 -18 12 -18 7 0 -5 -4 -4 -8 1 -12 17 -88 55 -108 55 -11 0 -86
-37 -169 -81z"/>
<path d="M281 2493 l-1 -1252 38 -18 c20 -9 40 -22 44 -27 5 -7 8 -7 8 -1 0 6
3 6 8 0 4 -6 30 -22 57 -37 28 -14 79 -41 115 -61 36 -19 94 -50 130 -68 36
-19 67 -36 70 -39 12 -12 93 -50 98 -46 2 3 4 292 4 642 0 363 4 632 9 627 8
-8 67 -121 341 -653 56 -107 124 -240 153 -295 29 -55 81 -156 115 -225 35
-69 66 -127 69 -130 3 -3 39 -70 78 -150 40 -80 85 -160 100 -179 39 -48 100
-111 107 -111 3 0 32 -18 63 -40 32 -22 64 -40 71 -40 6 0 12 -3 12 -8 0 -4
17 -16 38 -27 20 -11 39 -23 42 -26 3 -3 21 -14 40 -24 18 -10 40 -24 48 -31
7 -8 20 -14 28 -14 8 0 14 -4 14 -8 0 -5 18 -17 40 -27 22 -10 40 -22 40 -26
0 -4 10 -11 22 -15 12 -3 28 -13 36 -20 7 -8 19 -14 26 -14 8 0 19 -7 26 -15
7 -8 17 -15 22 -15 5 0 8 508 6 1265 -2 1030 -4 1265 -15 1265 -7 0 -13 5 -13
11 0 5 -4 8 -9 5 -5 -4 -11 -2 -13 2 -1 5 -128 70 -280 146 -152 76 -279 141
-283 144 -29 30 -30 7 -30 -689 0 -385 -1 -699 -3 -699 -1 0 -13 24 -26 53
-13 28 -41 90 -64 137 -22 47 -54 117 -72 155 -18 39 -98 210 -178 380 -79
171 -160 344 -179 385 -20 41 -69 147 -111 235 -41 88 -87 187 -102 220 -85
186 -124 262 -143 283 -12 13 -55 39 -94 58 -40 20 -75 39 -78 45 -4 5 -11 7
-16 4 -5 -4 -9 -1 -9 5 0 6 -4 8 -10 5 -5 -3 -10 -1 -10 5 0 6 -4 8 -10 5 -6
-3 -10 -1 -10 5 0 6 -4 9 -9 6 -5 -4 -11 -2 -13 2 -1 4 -66 39 -143 78 -77 38
-141 72 -143 77 -2 4 -12 7 -22 7 -10 0 -21 6 -23 13 -3 6 -6 -551 -6 -1240z"/>
<path d="M4820 3690 c0 -6 -4 -8 -10 -5 -5 3 -10 1 -10 -6 0 -7 -3 -10 -6 -6
-3 3 -23 -5 -44 -18 -21 -13 -41 -21 -44 -18 -3 4 -6 1 -6 -6 0 -7 -4 -9 -10
-6 -5 3 -10 1 -10 -6 0 -7 -3 -9 -7 -6 -3 4 -15 0 -25 -10 -10 -9 -18 -12 -18
-8 0 4 -9 0 -20 -10 -11 -10 -20 -14 -20 -10 0 4 -9 0 -20 -10 -11 -10 -20
-14 -20 -10 0 4 -8 1 -18 -8 -10 -10 -22 -14 -25 -10 -4 3 -7 1 -7 -6 0 -7 -4
-9 -10 -6 -5 3 -10 1 -10 -6 0 -7 -3 -9 -7 -6 -3 4 -13 1 -22 -7 -9 -8 -19
-15 -24 -15 -4 0 -30 -12 -57 -26 -27 -14 -52 -24 -54 -23 -2 2 -12 -4 -22
-13 -11 -8 -76 -43 -145 -78 l-127 -63 1 -534 c0 -294 2 -534 5 -534 12 0 197
94 200 102 2 4 8 6 13 2 5 -3 9 0 9 6 0 6 5 8 10 5 6 -3 10 -1 10 4 0 6 9 11
19 11 11 0 21 3 23 8 2 4 93 52 203 107 110 55 202 102 205 105 3 3 31 18 63
34 l57 29 0 528 c0 341 -4 530 -10 534 -5 3 -10 1 -10 -5z"/>
<path d="M3217 2886 c-257 -128 -470 -236 -474 -239 -5 -5 -8 -822 -4 -1039
l1 -37 473 236 c259 130 473 238 475 239 4 2 3 1067 -1 1071 -2 1 -213 -102
-470 -231z"/>
<path d="M4796 2229 c-14 -11 -26 -17 -26 -13 0 4 -8 0 -18 -9 -10 -10 -22
-14 -25 -10 -4 3 -7 1 -7 -6 0 -7 -4 -9 -10 -6 -5 3 -10 1 -10 -6 0 -7 -3 -9
-6 -6 -4 4 -19 -1 -33 -11 -14 -10 -138 -74 -276 -142 -137 -69 -253 -129
-257 -135 -4 -5 -8 -6 -8 -2 0 5 -12 0 -28 -10 -15 -10 -36 -23 -47 -29 -20
-11 -20 -22 -21 -540 0 -291 2 -534 4 -541 3 -11 199 82 214 102 4 6 8 6 8 1
0 -5 9 -1 20 9 11 10 20 14 20 10 0 -4 8 -1 18 8 9 8 20 16 25 16 4 0 30 12
57 26 27 14 52 24 54 23 2 -2 13 6 25 16 12 11 21 15 21 11 0 -4 8 -1 18 8 10
10 22 14 25 10 4 -3 7 0 7 7 0 7 3 10 6 7 4 -4 20 3 35 14 16 11 29 17 29 13
0 -4 8 0 18 9 10 10 22 14 25 10 4 -3 7 -1 7 6 0 7 4 10 9 7 5 -4 11 -3 13 2
1 4 38 24 81 45 l77 38 0 544 c0 300 -4 545 -9 545 -4 0 -20 -9 -35 -21z"/>
<path d="M3221 1434 c-255 -128 -469 -238 -474 -243 -7 -7 -10 -197 -9 -533 1
-612 0 -567 11 -550 4 8 12 14 17 14 23 2 44 11 44 19 0 5 9 9 20 9 11 0 20 4
20 9 0 5 14 12 30 16 17 4 30 11 30 16 0 6 4 8 9 5 5 -4 11 -3 13 1 1 5 173
93 381 197 l377 188 1 42 c1 135 -1 1039 -3 1041 -2 1 -212 -103 -467 -231z"/>
</g>
</svg>
